<?xml version="1.0" encoding="utf-8"?>
<svg version="1.1" id="Laag_1" focusable="false" xmlns="http://www.w3.org/2000/svg" xmlns:xlink="http://www.w3.org/1999/xlink"
	 x="0px" y="0px" viewBox="0 0 32 32" style="enable-background:new 0 0 32 32;" xml:space="preserve">
<path d="M17.3,7.9C17.1,7.3,16.6,7,16.1,7H16c-0.6,0-1.1,0.3-1.3,0.9L7.5,23.6c-0.1,0.2-0.1,0.3-0.1,0.5c0,0.5,0.4,0.9,0.9,0.9
	c0.4,0,0.8-0.3,1-0.7l1.8-4.1h9.8l1.8,4.1c0.1,0.4,0.5,0.7,1,0.7c0.5,0,1-0.4,1-1c0-0.2-0.1-0.3-0.1-0.5L17.3,7.9z M11.9,18.4
	L16,9.3l4.1,9.1H11.9z"/>
</svg>
